<svg id="Layer_1" data-name="Layer 1" xmlns="http://www.w3.org/2000/svg" viewBox="0 0 220 19.05"><defs><style>.cls-1{fill:#6a3906;}</style></defs><path class="cls-1" d="M205.72,10.3c3,0,8.07,1.58,8.07,1.58a19.11,19.11,0,0,1,6.21-2A19.11,19.11,0,0,1,213.79,8s-5.1,1.58-8.07,1.58c-.55,0-.75-.11-.8-.25.55-.16,1.1-.32,1.62-.49,2.61-.85,4.14-2.34,3.24-3.83a3.68,3.68,0,0,0-3.26-1.25,2.76,2.76,0,0,1,.32,1.37c0,2.08-2.58,3.13-3.87,3.65a15.39,15.39,0,0,1-1.74.56h-2.65a24.4,24.4,0,0,0,3.65-1.69c2.23-1.42,3.3-3.59,1.29-5.33a5.67,5.67,0,0,0-4.91-.91,4.58,4.58,0,0,1,1.85,3c0,2.42-2.24,3.58-4.7,4.39l-.84,0a4.9,4.9,0,0,0,3.25-4.3,3.6,3.6,0,0,0-2.08-3.1,10.07,10.07,0,0,0-6.87-.63c-1.76.48-3.19,1.73-3.41,3.05A2,2,0,0,0,186,5.15a3.73,3.73,0,0,0,3.26,1.6,2.51,2.51,0,0,0,2.34-1C192,5,191.51,4,190.23,3.84A2.47,2.47,0,0,0,189,4c-.41.14-.73.49-1.12.59-.61.17-.77-.34-.77-.71,0-1.34,1.77-2.21,3.48-2.47a8.93,8.93,0,0,1,4.31.46,2.94,2.94,0,0,1,1.93,2.61c0,2.09-1.91,3.45-4,4.26l-1.43-.06c-2.08-.11-4.22-.26-5.65-.48v1.3h-3.19l-2.28-1.59L178,9.45H131.77a2.49,2.49,0,0,0-4,0h-3.34a2.34,2.34,0,0,0,0-.26l-.14-.37a4.25,4.25,0,0,0-2.85-2.05A12.25,12.25,0,0,0,118,6.36c-.79,0-1.68,0-2.64.13h0c-.66,0-1.26.12-1.7.2-1.85.32-3.54.54-3.55.54a6.09,6.09,0,0,1-4-.64l-.22-.17,0,.22a1.65,1.65,0,0,0,.66,1.47,3.91,3.91,0,0,0,2.4.62H109l-.62.52c-2.17,1.83-4.21,3.56-7.14,3.56a8.94,8.94,0,0,1-2.28-.32c-2.28-.68-2.74-2.13-2.43-3.17S98.19,7,100.51,7a3.75,3.75,0,0,1,3.21,1.46,1.43,1.43,0,0,1-.58,2.2c-1.37.72-3,.51-3.48-.28A.74.74,0,0,1,100,9.37a1.2,1.2,0,0,1,.63-.08s0,0-.06.1a.51.51,0,0,0-.07.73,1.42,1.42,0,0,0,1.42.37,1,1,0,0,0,.69-.43.7.7,0,0,0,0-.77,1.18,1.18,0,0,0-.42-.41,2.88,2.88,0,0,0-2.3-.17c-.71.25-1.12.67-1.16,1.19a1.74,1.74,0,0,0,1.11,1.56,5.06,5.06,0,0,0,4-.28,2,2,0,0,0,.81-2.94,4.82,4.82,0,0,0-4.09-1.86c-2.86,0-4.55,1.41-5,2.82a1.64,1.64,0,0,0,0,.25H92.19a2.49,2.49,0,0,0-4,0H42L39.69,7.86,37.41,9.45H34.22V8.15c-1.42.22-3.57.37-5.65.48l-1.43.06c-2.05-.81-4-2.17-4-4.26a2.94,2.94,0,0,1,1.93-2.61,9,9,0,0,1,4.32-.46c1.7.26,3.47,1.13,3.47,2.47,0,.37-.16.88-.77.71-.39-.1-.71-.45-1.11-.59a2.52,2.52,0,0,0-1.25-.11C28.49,4,28,5,28.37,5.79a2.48,2.48,0,0,0,2.33,1A3.73,3.73,0,0,0,34,5.15a2,2,0,0,0,.23-1.37c-.22-1.32-1.65-2.57-3.41-3a10.08,10.08,0,0,0-6.87.63,3.62,3.62,0,0,0-2.08,3.1,4.91,4.91,0,0,0,3.25,4.3l-.84,0c-2.46-.81-4.7-2-4.7-4.39a4.58,4.58,0,0,1,1.85-3,5.67,5.67,0,0,0-4.91.91c-2,1.74-.94,3.91,1.29,5.33a24.87,24.87,0,0,0,3.65,1.69H18.77A15.39,15.39,0,0,1,17,8.76c-1.29-.52-3.87-1.57-3.87-3.65a2.76,2.76,0,0,1,.32-1.37A3.68,3.68,0,0,0,10.22,5c-.9,1.49.63,3,3.24,3.83.52.17,1.07.33,1.62.49-.05.14-.25.25-.8.25C11.31,9.56,6.21,8,6.21,8A19.11,19.11,0,0,1,0,9.93a19.11,19.11,0,0,1,6.21,2s5.1-1.58,8.07-1.58c.55,0,.75.11.8.25-.55.16-1.1.32-1.62.49-2.61.85-4.14,2.34-3.24,3.83a3.68,3.68,0,0,0,3.26,1.25,2.76,2.76,0,0,1-.32-1.37c0-2.08,2.58-3.13,3.87-3.65a15.39,15.39,0,0,1,1.74-.56h2.65a24.87,24.87,0,0,0-3.65,1.69c-2.23,1.42-3.3,3.59-1.29,5.33a5.64,5.64,0,0,0,4.91.91,4.58,4.58,0,0,1-1.85-3c0-2.42,2.24-3.59,4.7-4.39l.84,0a4.91,4.91,0,0,0-3.25,4.3,3.63,3.63,0,0,0,2.08,3.1,10.08,10.08,0,0,0,6.87.63c1.76-.48,3.19-1.73,3.41-3.05A2,2,0,0,0,34,14.71a3.68,3.68,0,0,0-3.26-1.6,2.46,2.46,0,0,0-2.33,1c-.39.75.12,1.76,1.4,1.95A2.52,2.52,0,0,0,31,15.91c.4-.14.72-.48,1.11-.6.61-.17.77.35.77.72,0,1.34-1.77,2.21-3.47,2.47A8.85,8.85,0,0,1,25.11,18a2.94,2.94,0,0,1-1.93-2.61c0-2.09,1.91-3.45,4-4.26l1.43.06c2.08.11,4.23.26,5.65.48v-1.3h3.19L39.69,12,42,10.41H88.23a2.48,2.48,0,0,0,4,0h3.32c.24,1.22,1.32,2.19,3,2.7a10,10,0,0,0,2.65.37c3.35,0,5.63-1.93,7.85-3.8l.19-.16c.34-.29.68-.58,1-.88a4.93,4.93,0,0,0,.86-.18,3,3,0,0,0-.73,1,2.12,2.12,0,0,0,.3,2.54,4,4,0,0,0,2.45.79h.32l-.21-.17a2.27,2.27,0,0,1-.62-3.36c1.3-2,4.56-2.23,6-2.23h0a9.24,9.24,0,0,1,2.48.33c2.28.67,2.74,2.13,2.44,3.17s-1.71,2.29-4,2.29a3.77,3.77,0,0,1-3.2-1.46,1.44,1.44,0,0,1,.58-2.21c1.36-.72,3-.51,3.47.29a.73.73,0,0,1-.31,1,1.19,1.19,0,0,1-.62.09s0,0,.06-.1a.52.52,0,0,0,.07-.73,1.42,1.42,0,0,0-1.42-.37,1.09,1.09,0,0,0-.7.43.68.68,0,0,0,0,.76,1.36,1.36,0,0,0,.41.42,3,3,0,0,0,2.31.17c.71-.25,1.12-.67,1.16-1.19a1.74,1.74,0,0,0-1.11-1.56,5.06,5.06,0,0,0-4,.27,2,2,0,0,0-.81,2.94,4.79,4.79,0,0,0,4.08,1.87c2.74,0,4.29-1.27,4.82-2.47l.15-.37a1.9,1.9,0,0,0,0-.25h3.33a2.47,2.47,0,0,0,4,0H178L180.31,12l2.28-1.59h3.19v1.3c1.43-.22,3.57-.37,5.65-.48l1.43-.06c2,.81,4,2.17,4,4.26A2.94,2.94,0,0,1,194.89,18a8.81,8.81,0,0,1-4.31.46c-1.71-.26-3.48-1.13-3.48-2.47,0-.37.16-.89.77-.72.39.12.71.46,1.12.6a2.47,2.47,0,0,0,1.24.11c1.28-.19,1.79-1.2,1.41-1.95a2.49,2.49,0,0,0-2.34-1,3.68,3.68,0,0,0-3.26,1.6,2,2,0,0,0-.23,1.37c.22,1.32,1.65,2.57,3.41,3.05a10.07,10.07,0,0,0,6.87-.63,3.61,3.61,0,0,0,2.08-3.1,4.9,4.9,0,0,0-3.25-4.3l.84,0c2.46.8,4.7,2,4.7,4.39a4.58,4.58,0,0,1-1.85,3,5.63,5.63,0,0,0,4.91-.91c2-1.74.94-3.91-1.29-5.33a24.4,24.4,0,0,0-3.65-1.69h2.65a15.39,15.39,0,0,1,1.74.56c1.29.52,3.87,1.57,3.87,3.65a2.76,2.76,0,0,1-.32,1.37,3.68,3.68,0,0,0,3.26-1.25c.9-1.49-.63-3-3.24-3.83-.52-.17-1.07-.33-1.62-.49C205,10.41,205.17,10.3,205.72,10.3Z" transform="translate(0 -0.4)"/></svg>