<svg id="Layer_1" data-name="Layer 1" xmlns="http://www.w3.org/2000/svg" viewBox="0 0 156 14"><defs><style>.cls-1{fill:#6a3906;}</style></defs><path class="cls-1" d="M154.93,6.52H122.61a2.11,2.11,0,0,0-4.18,0h-4.68a6.07,6.07,0,0,0-.1-.88,5.51,5.51,0,0,0-5.51-4.5,4.93,4.93,0,0,0-4.51,3,4,4,0,0,0,.88,4.64,4,4,0,0,0,4.34.43c1.26-.8,1.92-3.24,0-4.22a2.21,2.21,0,0,0-2.45.25,1.71,1.71,0,0,0-.44.62,1.26,1.26,0,0,0,.69,1.74A1.07,1.07,0,0,0,108,6c-.42-.59.55-.6.91-.24,1.66,1.66-.88,4.69-3.84,2.44a3.11,3.11,0,0,1-.72-3.82,4.16,4.16,0,0,1,3.82-2.51,4.79,4.79,0,0,1,4.78,3.9,4.69,4.69,0,0,1-2.89,5.4c-4.94,1.92-7.86-1.62-10.94-5.38l-1-1.14.47,0c3.7,0,3.33-3.24,3.33-3.24s-1.46,1.61-4.75,1.12c0,0-1.94-.37-4.08-.9a18.38,18.38,0,0,0-2-.33h0c-4-.52-5.82,0-6.89.44a5.38,5.38,0,0,0-3.16,3.28H75.67a5.38,5.38,0,0,0-3.16-3.28c-1.07-.41-2.86-1-6.89-.44h0a18,18,0,0,0-2,.33c-2.14.53-4.08.9-4.08.9-3.29.49-4.75-1.12-4.75-1.12s-.36,3.24,3.33,3.24l.47,0-1,1.14c-3.08,3.76-6,7.3-11,5.38a4.7,4.7,0,0,1-2.88-5.4,4.79,4.79,0,0,1,4.78-3.9A4.14,4.14,0,0,1,52.47,4.4a3.09,3.09,0,0,1-.71,3.82c-3,2.25-5.5-.78-3.84-2.44.35-.36,1.33-.35.9.24a1.08,1.08,0,0,0,1.36,1.55,1.26,1.26,0,0,0,.69-1.74,2,2,0,0,0-.44-.62A2.21,2.21,0,0,0,48,5c-1.95,1-1.29,3.42,0,4.22a4,4,0,0,0,4.35-.43,3.93,3.93,0,0,0,.87-4.64,4.9,4.9,0,0,0-4.5-3,5.51,5.51,0,0,0-5.51,4.5,6,6,0,0,0-.11.88H38.37a2.11,2.11,0,0,0-4.18,0H1.88v.59H34.19a2.11,2.11,0,0,0,4.18,0h4.68a5.31,5.31,0,0,0,3.43,4.77,8.06,8.06,0,0,0,3,.6c3.75,0,6.33-3.14,8.84-6.19.46-.57.93-1.13,1.4-1.68a.25.25,0,0,0,0-.07,3.93,3.93,0,0,0,1.83-.8,5.63,5.63,0,0,0-1.48,2.37c-1.47,5.32,3,5.27,3,5.27a5,5,0,0,1-.73-5.71c1.56-3.48,5.56-3.77,7-3.75a7.7,7.7,0,0,1,2.89.55,4.68,4.68,0,0,1,2.88,5.39,4.77,4.77,0,0,1-4.78,3.9,4.15,4.15,0,0,1-3.81-2.5,3.09,3.09,0,0,1,.72-3.83c3-2.24,5.5.79,3.83,2.45-.35.35-1.32.34-.9-.24a1.08,1.08,0,0,0-1.35-1.56,1.26,1.26,0,0,0-.7,1.74,1.93,1.93,0,0,0,.44.63A2.23,2.23,0,0,0,71,8.7c2-1,1.29-3.42,0-4.22a3.91,3.91,0,0,0-4.34.43,3.92,3.92,0,0,0-.88,4.64,4.9,4.9,0,0,0,4.5,3,5.46,5.46,0,0,0,5.35-3.93h5.43a5.48,5.48,0,0,0,5.35,3.93,4.92,4.92,0,0,0,4.51-3,3.94,3.94,0,0,0-.88-4.64,3.91,3.91,0,0,0-4.34-.43c-1.25.8-1.92,3.23,0,4.22a2.21,2.21,0,0,0,2.44-.25,1.79,1.79,0,0,0,.44-.63A1.26,1.26,0,0,0,88,6.08a1.08,1.08,0,0,0-1.35,1.56c.42.58-.55.59-.91.24-1.66-1.66.88-4.69,3.84-2.45a3.11,3.11,0,0,1,.72,3.83,4.15,4.15,0,0,1-3.82,2.5,4.79,4.79,0,0,1-4.78-3.9,4.69,4.69,0,0,1,2.89-5.39,7.63,7.63,0,0,1,2.89-.55c1.45,0,5.45.27,7,3.75a5,5,0,0,1-.73,5.71s4.45,0,3-5.27a5.63,5.63,0,0,0-1.48-2.37,3.93,3.93,0,0,0,1.83.8.25.25,0,0,0,0,.07c.47.55.94,1.11,1.4,1.68,2.51,3.05,5.08,6.19,8.84,6.19a8.1,8.1,0,0,0,3-.6,5.33,5.33,0,0,0,3.43-4.77h4.68a2.11,2.11,0,0,0,4.18,0h32.32ZM81,5.65A5.91,5.91,0,0,0,81,8h-5.1a5.91,5.91,0,0,0,0-2.33Z"/></svg>