<svg id="Layer_1" data-name="Layer 1" xmlns="http://www.w3.org/2000/svg" viewBox="0 0 156 19"><defs><style>.cls-1{fill:#6a3906;}</style></defs><path class="cls-1" d="M78.4,6.53a1,1,0,1,0-1-1A1,1,0,0,0,78.4,6.53Z"/><path class="cls-1" d="M78.4,13.4a1,1,0,1,0,1,1A1,1,0,0,0,78.4,13.4Z"/><path class="cls-1" d="M72.1,10a1,1,0,1,0-1,1A1,1,0,0,0,72.1,10Z"/><path class="cls-1" d="M85.7,9a1,1,0,1,0,1,1A1,1,0,0,0,85.7,9Z"/><path class="cls-1" d="M85.87,6.38l-2-2.78L78.4,7.79,73,3.6l-2,2.78L75.57,10l-4.64,3.58,2,2.78,5.43-4.18,5.43,4.18,2-2.78L81.23,10ZM83.69,4.57l1.23,1.68L80.66,9.53,79,8.22ZM71.88,6.25l1.23-1.68,4.73,3.65-1.7,1.31Zm1.23,9.1-1.23-1.67,4.26-3.28,1.7,1.31ZM76.7,10l1.7-1.31L80.1,10l-1.7,1.31Zm8.22,3.72-1.23,1.67L79,11.71l1.7-1.31Z"/><path class="cls-1" d="M61.1,6.11c-1.89-.38-1.74-1.51-1.74-1.51s-1.73.83-1,1.89,3,1.66,4.83,1.66a2,2,0,0,1,2,1.81,2,2,0,0,1-2,1.82c-1.81,0-4.15.6-4.83,1.66s1,1.89,1,1.89-.15-1.14,1.74-1.52S68.2,14,68.2,10,63,6.49,61.1,6.11Z"/><path class="cls-1" d="M20.16,10V9.9a4.11,4.11,0,0,1-2.54-1.2,4.59,4.59,0,0,1-2.16,1.06H1.87v.51h14a4.27,4.27,0,0,1,1.76,1A4.09,4.09,0,0,1,20.16,10Z"/><path class="cls-1" d="M63.59,9.76H54.83c-2.33-.35-6.07-1.29-8.14-3.84,0,0-2.75,2.91-8.91,3.79H24.67a4.08,4.08,0,0,0-3.91-4c-3.55-.3-4.12,1.93-4.12,1.93,1.54-1.24,3.89-1.69,5.19.09a3.72,3.72,0,0,1,.63,2.2,3.72,3.72,0,0,1-.63,2.2c-1.3,1.78-3.65,1.33-5.19.1,0,0,.57,2.23,4.12,1.92a4,4,0,0,0,3.91-4h13.1c6.17.88,8.92,3.78,8.92,3.78,1.9-2.34,5.19-3.31,7.53-3.73h9.37Z"/><path class="cls-1" d="M93.66,11.78a2,2,0,0,1-2-1.82,2,2,0,0,1,2-1.81c1.81,0,4.16-.6,4.83-1.66s-1-1.89-1-1.89.15,1.13-1.74,1.51-7.1-.2-7.1,3.85,5.21,3.48,7.1,3.85,1.74,1.52,1.74,1.52,1.73-.84,1-1.89S95.47,11.78,93.66,11.78Z"/><path class="cls-1" d="M141.34,9.76a4.59,4.59,0,0,1-2.16-1.06,4.11,4.11,0,0,1-2.54,1.2V10a4.09,4.09,0,0,1,2.54,1.19,4.27,4.27,0,0,1,1.76-1h14V9.76Z"/><path class="cls-1" d="M135,12.16a3.79,3.79,0,0,1-.63-2.2,3.79,3.79,0,0,1,.63-2.2c1.3-1.78,3.65-1.33,5.19-.09,0,0-.57-2.23-4.12-1.93a4.08,4.08,0,0,0-3.91,4H119c-6.16-.88-8.92-3.79-8.92-3.79C108,8.47,104.3,9.41,102,9.76H93.21v.51h9.37c2.34.42,5.63,1.39,7.53,3.73,0,0,2.76-2.9,8.92-3.78h13.1a4.05,4.05,0,0,0,3.91,4c3.55.31,4.12-1.92,4.12-1.92C138.62,13.49,136.27,13.94,135,12.16Z"/></svg>