<svg xmlns="http://www.w3.org/2000/svg" viewBox="0 0 122.88 122.88"><defs><style>.cls-1{fill:#3b5999;}.cls-2{fill:#fff;}.cls-2,.cls-3{fill-rule:evenodd;}.cls-3{fill:#30487c;}</style></defs><title>facebook</title><g id="Layer_2" data-name="Layer 2"><g id="Layer_1-2" data-name="Layer 1"><g id="Layer_1-3" data-name="Layer_1"><g id="_444233528" data-name=" 444233528"><rect class="cls-1" width="122.88" height="122.88" rx="13.34"/><path class="cls-2" d="M40,50.49H52.87V48.1c0-3.81-.48-8.57,0-12.38.47-9,5.24-14.76,17.62-15.24L82.87,21V34.29c-5.24,0-14.29-1.9-15.24,4.76V50.49H81.92L80.49,65.25H67.63V102.4H52.87V65.25L40,64.77Z"/><path class="cls-3" d="M122.88,61l-40-40V34.29c-5.24,0-14.29-1.9-15.24,4.76V50.49H81.92L80.49,65.25H67.63V102.4H52.87l20.48,20.48h36.19l13.34-13.34Z"/></g></g></g></g></svg>